<svg width="38" height="38" viewBox="0 0 38 38" fill="none" xmlns="http://www.w3.org/2000/svg">
<circle cx="19" cy="19" r="19" fill="#CFD4ED"/>
<path d="M16.4677 12.9942V19.8422C16.4677 20.6315 16.6224 21.2235 16.9317 21.6182C17.241 22.0022 17.7584 22.1942 18.4837 22.1942C19.209 22.1942 19.7264 22.0022 20.0357 21.6182C20.345 21.2235 20.4997 20.6315 20.4997 19.8422V12.9942H22.8677V19.5862C22.8677 20.4075 22.7877 21.1222 22.6277 21.7302C22.4784 22.3275 22.2277 22.8235 21.8757 23.2182C21.5237 23.6022 21.0704 23.8902 20.5157 24.0822C19.961 24.2635 19.2837 24.3542 18.4837 24.3542C17.6837 24.3542 17.0064 24.2635 16.4517 24.0822C15.897 23.8902 15.4437 23.6022 15.0917 23.2182C14.7397 22.8235 14.4837 22.3275 14.3237 21.7302C14.1744 21.1222 14.0997 20.4075 14.0997 19.5862V12.9942H16.4677Z" fill="#151515"/>
</svg>
